<svg class="icon" width="36" height="36" viewBox="0 0 500 500" xmlns="http://www.w3.org/2000/svg">
  <style>
    .site-logo-letter {
      fill: white;
      transition: fill .8s cubic-bezier(0.230, 1.000, 0.320, 1.000); /* easeOutQuint */
    }
    .site-logo-bg {
      fill: currentColor;
      transition: fill .4s cubic-bezier(0.230, 1.000, 0.320, 1.000); /* easeOutQuint */
    }
    @media (prefers-color-scheme: dark) {
      .site-logo-letter {
        fill: #333;
      }
    }
  </style>
  <g fill="none" fill-rule="evenodd">
    <rect class="site-logo-bg" width="500" height="500" rx="80"></rect>
    <path class="site-logo-letter" d="M295.3 182.6l6-50.7c-13.4-1.3-26-2-37.6-2-25.4 0-45.4 2-60 6.1-3 .8-5.8 1.8-8.7 3a46.2 46.2 0 00-10.4 5.8 28.2 28.2 0 00-11.7 23.7c0 3.3.5 6.6 1.5 9.8a51.7 51.7 0 005.2 12 13.9 13.9 0 012 7c0 3-1 6-3 8.4a27.1 27.1 0 01-12.2 8.5 24 24 0 01-7.6 1.3c-7.1 0-12.6-3-16.4-9.1a67.7 67.7 0 01-9.4-35.9c0-53.7 47-80.5 140.8-80.5 12.6 0 25.1.6 37.6 1.9 12 1.2 23.8 3.3 35.5 6.2 12.7 3 19.1 9.3 19.1 18.7 0 1.9-.1 3.7-.4 5.6-.2 1.9-.7 3.6-1.2 5-.6 1.7-1.5 3.2-2.6 4.5a12.8 12.8 0 01-5.7 3.9c-2.2.8-4.8 1.2-7.9 1.2a741.1 741.1 0 01-3.8 30 3028.4 3028.4 0 00-2.9 20.6 814.7 814.7 0 01-13.4 75.6C308.6 347 278.6 395 238.2 407a79.2 79.2 0 01-38.8 1.1 52.5 52.5 0 01-25.7-13.9 53.4 53.4 0 01-15.6-39.5c0-23 8.4-45 23.5-62.2 4-4.7 8.2-9 12.8-13.1a236.6 236.6 0 0141.1-29.5 336.7 336.7 0 0154-24.7 1131.7 1131.7 0 005.8-42.6zm-44.3 171l3.1-4.5c3.5-5.4 6.5-11 9-17 5.3-12.3 10.3-28 14.9-47 1.8-7.7 3.5-15.4 5-23.1-11.4 5-22.4 10.6-33 17.1-24.6 15.4-40 32.7-46 51.7a63.2 63.2 0 00-2.4 26.2c.4 2.5 1.1 4.8 2.1 6.8a17.6 17.6 0 0014 10l3.5.2c9.9 0 19.8-6.8 29.8-20.4z" fill-rule="nonzero"></path>
  </g>
</svg>
